<?xml version="1.0" ?><svg id="Layer_3" style="enable-background:new 0 0 64 64;" version="1.1" viewBox="0 0 64 64" xml:space="preserve" xmlns="http://www.w3.org/2000/svg" xmlns:xlink="http://www.w3.org/1999/xlink"><g><g><rect height="60" style="fill:#B3B3B3;" width="60" x="2" y="2"/></g><g><rect height="4" style="fill:#1A1A1A;" width="60" x="2" y="58"/></g><g><rect height="4" style="fill:#333333;" width="57" x="2" y="58"/></g><g><rect height="18" style="fill:#85181B;" width="14" x="34" y="34"/></g><g><rect height="18" style="fill:#B22024;" width="10" x="34" y="34"/></g><g><rect height="12" style="fill:#85181B;" width="14" x="43" y="46"/></g><g><rect height="12" style="fill:#B22024;" width="10" x="43" y="46"/></g><g><rect height="18" style="fill:#85181B;" width="14" x="16" y="34"/></g><g><rect height="18" style="fill:#B22024;" width="10" x="16" y="34"/></g><g><rect height="12" style="fill:#85181B;" width="14" x="7" y="46"/></g><g><rect height="12" style="fill:#B22024;" width="10" x="7" y="46"/></g><g><path d="M55,30h7v-4h-7c-1.105,0-2,0.895-2,2v0C53,29.105,53.895,30,55,30z" style="fill:#003C60;"/></g><g><path d="M9,30H2v-4h7c1.105,0,2,0.895,2,2v0C11,29.105,10.105,30,9,30z" style="fill:#003C60;"/></g><g><path d="M5.5,58H2V30h5l2,24.5C9,56.433,7.433,58,5.5,58z" style="fill:#05668D;"/></g><g><path d="M6,54.5L4,30H2v28h0.5C4.433,58,6,56.433,6,54.5z" style="fill:#048090;"/></g><g><path d="M58.5,58H62V30h-5l-2,24.5C55,56.433,56.567,58,58.5,58z" style="fill:#05668D;"/></g><g><path d="M57,30l-2,24.5c0,1.933,1.567,3.5,3.5,3.5H59V30H57z" style="fill:#048090;"/></g><g><rect height="14" style="fill:#754C24;" width="34" x="15" y="2"/></g><g><rect height="14" style="fill:#8C6239;" width="31" x="15" y="2"/></g><g><rect height="6" style="fill:#4D4D4D;" width="26" x="19" y="6"/></g><g><rect height="6" style="fill:#666666;" width="23" x="19" y="6"/></g><g><path d="M62,26L62,26l0-24H49v11C49,20.18,54.82,26,62,26z" style="fill:#05668D;"/></g><g><path d="M59,25.638V2H49v11C49,19.145,53.269,24.282,59,25.638z" style="fill:#048090;"/></g><g><path d="M2,26L2,26L2,2h13v11C15,20.18,9.18,26,2,26z" style="fill:#05668D;"/></g><g><path d="M12,13V2H2v23.638C7.731,24.282,12,19.145,12,13z" style="fill:#048090;"/></g><g><rect height="12" style="fill:#85181B;" width="14" x="25" y="46"/></g><g><rect height="12" style="fill:#B22024;" width="10" x="25" y="46"/></g><g><path d="M62,63H2c-0.553,0-1-0.447-1-1V2c0-0.553,0.447-1,1-1h60c0.553,0,1,0.447,1,1v60C63,62.553,62.553,63,62,63z M3,61h58V3H3    V61z"/></g><g><rect height="2" width="60" x="2" y="57"/></g><g><path d="M31,46h-2V35H17v11h-2V34c0-0.553,0.447-1,1-1h14c0.553,0,1,0.447,1,1V46z"/></g><g><path d="M49,46h-2V35H35v11h-2V34c0-0.553,0.447-1,1-1h14c0.553,0,1,0.447,1,1V46z"/></g><g><path d="M40,58h-2V47H26v11h-2V46c0-0.553,0.447-1,1-1h14c0.553,0,1,0.447,1,1V58z"/></g><g><path d="M44,58h-2V46c0-0.553,0.447-1,1-1h12v2H44V58z"/></g><g><rect height="2" width="4" x="21" y="51"/></g><g><rect height="2" width="4" x="39" y="51"/></g><g><rect height="2" width="34" x="15" y="15"/></g><g><path d="M2,27c-0.553,0-1-0.447-1-1V2c0-0.553,0.447-1,1-1h13c0.553,0,1,0.447,1,1v11C16,20.72,9.72,27,2,27z M3,3v21.959    C9.15,24.449,14,19.28,14,13V3H3z"/></g><g><path d="M9,31H2c-0.553,0-1-0.447-1-1v-4c0-0.553,0.447-1,1-1h7c1.654,0,3,1.346,3,3S10.654,31,9,31z M3,29h6c0.552,0,1-0.448,1-1    s-0.448-1-1-1H3V29z"/></g><g><path d="M62,27c-7.72,0-14-6.28-14-14V2c0-0.553,0.447-1,1-1h13c0.553,0,1,0.447,1,1v24C63,26.553,62.553,27,62,27z M50,3v10    c0,6.28,4.85,11.449,11,11.959V3H50z"/></g><g><path d="M62,31h-7c-1.654,0-3-1.346-3-3s1.346-3,3-3h7c0.553,0,1,0.447,1,1v4C63,30.553,62.553,31,62,31z M55,27    c-0.552,0-1,0.448-1,1s0.448,1,1,1h6v-2H55z"/></g><g><path d="M22,58h-2V47H8v-2h13c0.553,0,1,0.447,1,1V58z"/></g><g><path d="M45,13H19c-0.553,0-1-0.447-1-1V6c0-0.553,0.447-1,1-1h26c0.553,0,1,0.447,1,1v6C46,12.553,45.553,13,45,13z M20,11h24V7    H20V11z"/></g><g><path d="M5.5,59H2c-0.553,0-1-0.447-1-1V30c0-0.553,0.447-1,1-1h5c0.521,0,0.954,0.399,0.997,0.919l2,24.5    C10,56.981,7.981,59,5.5,59z M3,57h2.5C6.879,57,8,55.879,8,54.5L6.078,31H3V57z"/></g><g><path d="M62,59h-3.5c-2.481,0-4.5-2.019-4.5-4.5l2.003-24.581C56.046,29.399,56.479,29,57,29h5c0.553,0,1,0.447,1,1v28    C63,58.553,62.553,59,62,59z M57.922,31l-1.925,23.581C56,55.879,57.121,57,58.5,57H61V31H57.922z"/></g></g></svg>